<svg xmlns="http://www.w3.org/2000/svg" width="178" height="68.705" viewBox="0 0 178 68.705">
  <g id="norton" transform="translate(-14.7 -206)">
    <path id="Path_27" data-name="Path 27" d="M500.233,298.014a5.081,5.081,0,1,1,5.081-5.081,5.092,5.092,0,0,1-5.081,5.081m0-15.014a9.933,9.933,0,1,0,9.933,9.933A9.94,9.94,0,0,0,500.233,283" transform="translate(-339.845 -55.021)"/>
    <path id="Path_28" data-name="Path 28" d="M340.433,298.014a5.081,5.081,0,1,1,5.081-5.081,5.092,5.092,0,0,1-5.081,5.081m0-15.014a9.933,9.933,0,1,0,9.933,9.933A9.94,9.94,0,0,0,340.433,283" transform="translate(-225.658 -55.021)"/>
    <path id="Path_29" data-name="Path 29" d="M428.934,285.866a11.218,11.218,0,0,1-1.941.371c-1.713,0-2.055-.6-2.055-2.2v-9.191h4.053v-3.825h-4.053V265.6h-4.567l-.971,5.423h-3.425c-2.6,0-4.567,1.6-5.823,4.082l-1.57-4.082H405.3v19.039h5.595v-8.278c0-4.167,2.483-6.851,5.395-6.936h3.054v9.477c0,4.453,2.283,6.108,5.994,6.108a13.8,13.8,0,0,0,4.282-.685Z" transform="translate(-279.107 -42.588)"/>
    <path id="Path_30" data-name="Path 30" d="M570.052,290.523v13.045H564.6V284.5h3.311l1.113,2.911" transform="translate(-392.937 -56.093)"/>
    <path id="Path_31" data-name="Path 31" d="M580,286.368A8.816,8.816,0,0,1,586.565,283c4.538,0,6.394,3.625,6.394,6.965V302.5h-5.595v-12.36a2.592,2.592,0,0,0-2.826-2.512,4.652,4.652,0,0,0-3.454,1.855" transform="translate(-403.941 -55.021)"/>
    <path id="Path_32" data-name="Path 32" d="M254.4,260.4h6.251l8.563,16.3V260.4h5.166v25.946h-5.652l-9.163-17.954v17.954H254.4Z" transform="translate(-171.28 -38.872)"/>
    <path id="Path_33" data-name="Path 33" d="M625.4,284.6v.371h.514v1.8h.428v-1.8h.542V284.6Z" transform="translate(-436.382 -56.164)"/>
    <path id="Path_34" data-name="Path 34" d="M632.942,284.6l-.371,1.427-.4-1.427H631.6v2.169h.371v-1.713h0l.457,1.713h.286l.457-1.713h0v1.713h.343V284.6Z" transform="translate(-440.812 -56.164)"/>
    <path id="Path_35" data-name="Path 35" d="M261.594,382.463c0-1.656-.514-3.6-2.4-3.6a3.294,3.294,0,0,0-2.4,1.142v5.452a2.743,2.743,0,0,0,2.169,1.085c1.684-.029,2.626-1.484,2.626-4.082m-5.166,4.053-.4,1.227H255V373.5h1.8v5.2a3.862,3.862,0,0,1,2.8-1.342c2.712,0,3.91,2.683,3.91,5.109,0,3.254-1.684,5.452-4.2,5.452a3.467,3.467,0,0,1-2.883-1.4" transform="translate(-171.709 -119.689)" fill="#a0a0a0"/>
    <path id="Path_36" data-name="Path 36" d="M288.8,387.7h1.827s2.569,8.592,2.569,8.62l2.4-8.62h1.77l-3.425,10.961c-.6,1.884-1.6,2.94-3.568,2.94a4.548,4.548,0,0,1-1.227-.171l.228-1.284a6.264,6.264,0,0,0,.856.114,2.194,2.194,0,0,0,2.255-1.741Z" transform="translate(-195.861 -129.836)" fill="#a0a0a0"/>
    <path id="Path_37" data-name="Path 37" d="M337.5,385.616l.885-1.256a6.462,6.462,0,0,0,4.025,1.37c1.855,0,2.94-.885,2.94-2.426,0-1.713-1.313-2.255-3.2-2.911-2.027-.714-3.882-1.627-3.882-4.225,0-2.312,1.827-3.568,4.224-3.568a6.967,6.967,0,0,1,3.825.913l-.742,1.37a6.122,6.122,0,0,0-3.111-.771c-1.513,0-2.54.6-2.54,2.027,0,1.513,1,2,3.083,2.74,2,.685,4.11,1.57,4.11,4.367,0,2.483-1.77,3.968-4.681,3.968a7.228,7.228,0,0,1-4.938-1.6" transform="translate(-230.66 -119.046)" fill="#a0a0a0"/>
    <path id="Path_38" data-name="Path 38" d="M374.8,387.7h1.827s2.569,8.592,2.569,8.62l2.4-8.62h1.77l-3.425,10.961c-.6,1.884-1.6,2.94-3.568,2.94a4.547,4.547,0,0,1-1.227-.171l.228-1.284a6.263,6.263,0,0,0,.856.114,2.194,2.194,0,0,0,2.255-1.741Z" transform="translate(-257.313 -129.836)" fill="#a0a0a0"/>
    <path id="Path_39" data-name="Path 39" d="M422.09,387c2.055,0,2.6,1.741,2.6,3.425v6.965h-1.8v-6.965c0-1-.171-1.912-1.4-1.912a3.948,3.948,0,0,0-2.6,1.4v7.479h-1.8v-6.965c0-1-.171-1.912-1.4-1.912a4.067,4.067,0,0,0-2.6,1.427v7.45h-1.8V387.2h1.056l.457,1.656A4.831,4.831,0,0,1,416.267,387a2.3,2.3,0,0,1,2.341,1.77A4.789,4.789,0,0,1,422.09,387" transform="translate(-283.395 -129.335)" fill="#a0a0a0"/>
    <path id="Path_40" data-name="Path 40" d="M472.294,392.138c-2.027.371-3.34.8-3.853,1.427a1.431,1.431,0,0,0-.314,1.028,1.391,1.391,0,0,0,1.57,1.57,4.505,4.505,0,0,0,2.6-1Zm0-1.627c0-1.37-.428-2.055-1.912-2.055a6.506,6.506,0,0,0-2.911.885l-.657-1.2A6.7,6.7,0,0,1,470.5,387c2.54,0,3.539,1.37,3.539,3.654v6.765h-1.028l-.457-1.227a4.531,4.531,0,0,1-3.14,1.37,2.84,2.84,0,0,1-3.111-2.826,2.671,2.671,0,0,1,1.37-2.483,13.43,13.43,0,0,1,4.624-1.284Z" transform="translate(-322.695 -129.335)" fill="#a0a0a0"/>
    <path id="Path_41" data-name="Path 41" d="M503.9,387.2h1.056l.457,1.684A4.917,4.917,0,0,1,509.066,387c2.2,0,2.769,1.741,2.769,3.425v6.965h-1.8v-6.965c0-1-.257-1.912-1.57-1.912a4.154,4.154,0,0,0-2.769,1.456v7.421h-1.8V387.2Z" transform="translate(-349.563 -129.335)" fill="#a0a0a0"/>
    <path id="Path_42" data-name="Path 42" d="M538.4,381.667v-1.256h1.57l.457-2.911h1.284v2.911h2.284v1.256h-2.284v6.28c0,.942.171,1.456,1.142,1.456a4.571,4.571,0,0,0,1.17-.2l.257,1.227a4.5,4.5,0,0,1-1.656.314c-1.855,0-2.683-.885-2.683-2.712v-6.394H538.4Z" transform="translate(-374.215 -122.547)" fill="#a0a0a0"/>
    <path id="Path_43" data-name="Path 43" d="M569.922,391.6c-.057-2.141-.771-3.254-2.2-3.254-1.284,0-2.141,1-2.283,3.254Zm-1.941,4.538a4.8,4.8,0,0,0,2.769-1l.742,1.085a5.2,5.2,0,0,1-3.682,1.342c-2.626,0-4.31-2.027-4.31-5.252,0-3.14,1.627-5.309,4.167-5.309,2.626,0,4.025,1.97,4.025,5.366v.428h-6.337c.143,2.169.914,3.34,2.626,3.34" transform="translate(-392.151 -129.335)" fill="#a0a0a0"/>
    <path id="Path_44" data-name="Path 44" d="M598,392.366c0-2.626,1.17-5.366,4.31-5.366a4.585,4.585,0,0,1,3.2,1.085l-.771,1.2a3.922,3.922,0,0,0-2.4-.828c-2.141,0-2.455,2.2-2.455,3.939,0,1.684.371,3.739,2.512,3.739a3.584,3.584,0,0,0,2.426-.97l.856,1.056a4.507,4.507,0,0,1-3.368,1.37c-3.111-.029-4.31-2.683-4.31-5.224" transform="translate(-416.803 -129.335)" fill="#a0a0a0"/>
    <path id="Path_45" data-name="Path 45" d="M44.443,247.691a20.352,20.352,0,1,0,14.386,34.738,20.451,20.451,0,0,0,5.966-14.386,20.368,20.368,0,0,0-20.352-20.352m0,50.095a29.743,29.743,0,1,1,29.743-29.743,29.8,29.8,0,0,1-29.743,29.743" transform="translate(0 -23.08)" fill="#ffc20e"/>
    <rect id="Rectangle_7" data-name="Rectangle 7" width="2.312" height="2.312" transform="translate(76.84 210.624)" fill="#ffc20e"/>
    <rect id="Rectangle_8" data-name="Rectangle 8" width="2.312" height="2.312" transform="translate(76.84 206)" fill="#ffc20e"/>
    <rect id="Rectangle_9" data-name="Rectangle 9" width="2.169" height="2.255" transform="translate(70.332 212.936)" fill="#fff"/>
    <rect id="Rectangle_10" data-name="Rectangle 10" width="2.198" height="2.169" transform="translate(66.022 217.389)"/>
    <rect id="Rectangle_11" data-name="Rectangle 11" width="2.426" height="2.169" transform="translate(72.473 215.191)"/>
    <rect id="Rectangle_12" data-name="Rectangle 12" width="2.169" height="2.084" transform="translate(63.853 215.305)"/>
    <rect id="Rectangle_13" data-name="Rectangle 13" width="2.169" height="2.169" transform="translate(70.332 217.389)"/>
    <rect id="Rectangle_14" data-name="Rectangle 14" width="2.284" height="2.312" transform="translate(74.557 208.341)"/>
    <rect id="Rectangle_15" data-name="Rectangle 15" width="4.225" height="2.312" transform="translate(70.332 210.624)"/>
    <rect id="Rectangle_16" data-name="Rectangle 16" width="2.112" height="4.453" transform="translate(68.22 212.936)"/>
    <path id="Path_46" data-name="Path 46" d="M110.171,253.5v2.169h-2.2V253.5h-3.625v1.57h-1.941v1.941h2.169v2.169h-2.169v-2.169h-2.312v3.4H97.925v2.169H96.469v2.169h-1.6a122.767,122.767,0,0,0-7.621,14.3c-4.881-6.793-8.677-9.477-11.646-10.447-1.6-.485-3.539,1.256-.885,4.025,6.137,6.765,8.078,12.331,9.933,16.812,1,2.341,5.423,2.712,6.308.314a71.5,71.5,0,0,1,7.878-15.414v-2.426h1.741v-2.169h1.827V267.2h2.169v-2.426h-2.2v-2.226h2.2v2.226h2.141v-2.2h1.713v-2.655h1.941V258.1h1.855v-4.6Z" transform="translate(-41.951 -33.942)"/>
  </g>
</svg>
