<svg xmlns="http://www.w3.org/2000/svg" width="89.825" height="89.743" viewBox="0 0 89.825 89.743">
  <g id="_24hr" data-name="24hr" transform="translate(-0.175 -0.128)">
    <g id="Group" transform="translate(14.211 1.412)">
      <ellipse id="Oval" cx="37.213" cy="37.432" rx="37.213" ry="37.432" transform="translate(0.035 0.052)" fill="#c0dfeb"/>
      <ellipse id="Oval-2" data-name="Oval" cx="37.213" cy="37.432" rx="37.213" ry="37.432" transform="translate(0.035 0.052)" fill="#c0dfeb"/>
    </g>
    <path id="Path" d="M31.032,62.416a30.877,30.877,0,0,1-9.061-1.367A31.266,31.266,0,0,1,1.352,22.107a31.031,31.031,0,1,1,59.333,18.2A31.054,31.054,0,0,1,31.032,62.416S31.032,62.416,31.032,62.416Z" transform="translate(20.441 7.689)" fill="#a6d2e3"/>
    <path id="Path-2" data-name="Path" d="M48.512,29.755A24.583,24.583,0,0,1,29.166,48.886a24.236,24.236,0,0,1-9.7-.087A24.658,24.658,0,0,1,29.139.446c.147.028.3.057.443.089A24.661,24.661,0,0,1,48.512,29.755Z" transform="translate(26.937 14.23)" fill="#3993b7"/>
    <path id="Path-3" data-name="Path" d="M39.249,29.309A24.583,24.583,0,0,1,19.9,48.44c-.147-.027-.292-.057-.437-.087A24.695,24.695,0,0,1,19.876,0c.147.028.3.057.443.089A24.661,24.661,0,0,1,39.249,29.309Z" transform="translate(36.2 14.676)" fill="#3e9dc3"/>
    <path id="Path-4" data-name="Path" d="M40.653,83.464A29.184,29.184,0,0,1,15.57,65.527L2.28,33.669A29.479,29.479,0,0,1,7.123,3.1,8.838,8.838,0,0,1,10.4.7,9,9,0,0,1,22.186,5.56l2.872,6.885a6.507,6.507,0,0,1-3.454,8.5A12.291,12.291,0,0,0,15.079,37l7.093,17a12.164,12.164,0,0,0,15.96,6.563,6.432,6.432,0,0,1,8.453,3.476l2.874,6.887a9.423,9.423,0,0,1,.375,1.079A9.025,9.025,0,0,1,40.653,83.464Z" transform="translate(1.503 5.054)" fill="#06638d"/>
    <path id="Path-5" data-name="Path" d="M45.2,72.009A48.493,48.493,0,0,1,5.765.7,9,9,0,0,1,17.555,5.56l2.872,6.885a6.507,6.507,0,0,1-3.454,8.5A12.291,12.291,0,0,0,10.448,37l7.093,17A12.164,12.164,0,0,0,33.5,60.567a6.432,6.432,0,0,1,8.453,3.476l2.874,6.887A9.346,9.346,0,0,1,45.2,72.009Z" transform="translate(6.134 5.054)" fill="#1b87b3"/>
    <path id="Path-6" data-name="Path" d="M33.852,1.277A25.728,25.728,0,0,0,9.668,5.725,26.1,26.1,0,0,0,5.693,42.274a25.749,25.749,0,0,0,36.336,4A26.106,26.106,0,0,0,38.952,3.582a1.324,1.324,0,0,0-1.818.475,1.34,1.34,0,0,0,.472,1.829A23.358,23.358,0,0,1,25.873,49.33a23.306,23.306,0,1,1,7.16-45.512,1.335,1.335,0,0,0,.819-2.542Z" transform="translate(25.611 12.898)" fill="#fff"/>
    <path id="Path-7" data-name="Path" d="M.088.089Z" transform="translate(18.978 51.375)" fill="#fff"/>
    <path id="Path-8" data-name="Path" d="M.087.087v0Z" transform="translate(18.979 51.376)" fill="#fff"/>
    <path id="Path-9" data-name="Path" d="M.088.088h0Z" transform="translate(18.979 51.377)" fill="#fff"/>
    <path id="Path-10" data-name="Path" d="M82.413,15.9a38.419,38.419,0,0,0-57.472-5.448l-.2-.488A10.287,10.287,0,0,0,7.446,7.153,30.807,30.807,0,0,0,2.382,39.112c13.349,31.221,13.152,33.4,17.316,38.8a1.322,1.322,0,0,0,1.863.237,1.339,1.339,0,0,0,.235-1.874c-3.824-4.962-3.572-6.814-16.965-38.2A28.123,28.123,0,0,1,9.456,8.9,7.638,7.638,0,0,1,22.289,11c3.1,7.422,3.274,7.5,3.274,8.88a5.151,5.151,0,0,1-3.145,4.76,13.616,13.616,0,0,0-7.236,17.8l3.709,8.891v0l3.383,8.108a13.483,13.483,0,0,0,17.7,7.279,5.112,5.112,0,0,1,6.714,2.761c3.294,7.751,3.481,8.239,3.481,9.883a7.656,7.656,0,0,1-8.106,7.688A27.854,27.854,0,0,1,25.251,80a1.324,1.324,0,0,0-1.875.109,1.341,1.341,0,0,0,.108,1.886c5.771,5.175,13.366,7.753,19.081,7.753A10.347,10.347,0,0,0,52.657,77.521a38.747,38.747,0,0,0,21.314-7.409,1.341,1.341,0,0,0,.292-1.867,1.322,1.322,0,0,0-1.854-.3,36.077,36.077,0,0,1-20.595,6.921l-2.677-6.419a7.762,7.762,0,0,0-10.191-4.191,10.832,10.832,0,0,1-14.223-5.849l-7.093-17a10.94,10.94,0,0,1,5.814-14.306,7.815,7.815,0,0,0,4.773-7.224c0-2.405-.961-3.579-2.19-6.821a35.584,35.584,0,0,1,25.243-10.4A36.16,36.16,0,0,1,76.322,64.635a1.342,1.342,0,0,0-.026,1.89,1.323,1.323,0,0,0,1.879.027A38.964,38.964,0,0,0,82.413,15.9Z" transform="translate(0.175 0.128)" fill="#fff"/>
    <path id="Path-11" data-name="Path" d="M0,24.028v3.859C0,28.6.87,29.08,1.5,29.08H15.582c.633,0,1.147-.756,1.147-1.512a1.368,1.368,0,0,0-1.147-1.512H3.441V24.028c0-4.973,13.051-7.718,13.051-16.271C16.492,3.262,12.932,0,8.345,0,4.113,0,.632,2.785.632,6.8c0,1.472.554,1.949,1.5,1.949,1.107,0,1.74-.637,1.74-1.313C3.876,4.5,5.814,3.1,8.345,3.1a4.611,4.611,0,0,1,4.825,4.774C13.17,14.441,0,17.5,0,24.028Z" transform="translate(34.976 22.839)" fill="#fff"/>
    <path id="Path-12" data-name="Path" d="M9.97.951C-.5,21.857,0,20.391,0,21.081A1.189,1.189,0,0,0,1.23,22.393h9.887v5.49c0,1.591,3.322,1.591,3.322,0v-5.49h2.1c.672,0,1.186-.8,1.186-1.591s-.4-1.591-1.186-1.591h-2.1V12.527c0-1.544-3.322-1.544-3.322,0v6.683H4.275L12.937,1.866C13.776.458,11.006-1.016,9.97.951Z" transform="translate(51.86 22.843)" fill="#fff"/>
  </g>
</svg>
