<svg xmlns="http://www.w3.org/2000/svg" width="107.364" height="36.692" viewBox="0 0 107.364 36.692">
  <path id="bar" d="M3.775,164.692H0V128H3.775Zm3.775-.026H5.632V128H7.549Zm5.632,0H11.324V128h1.857Zm9.406,0H20.73V128h1.857Zm9.406,0H28.279V128h3.715Zm7.549,0H37.685V128h1.857Zm3.775,0H41.46V128h1.857Zm3.775,0H45.234V128h1.857Zm9.406,0H52.724V128H56.5Zm9.406,0H62.13V128H65.9Zm7.549,0H69.679V128h3.775Zm7.549,0H77.228V128H81Zm5.632,0H82.86V128h3.775Zm11.324,0H92.326V128h5.632Zm3.775,0H99.815V128h1.917Zm5.632.026H103.59V128h3.775Z" transform="translate(0 -128)"/>
</svg>
