<svg xmlns="http://www.w3.org/2000/svg" width="68.19" height="68.19" viewBox="0 0 68.19 68.19">
  <g id="bitcoinFooter" transform="translate(4017 879)">
    <circle id="Ellipse_1" data-name="Ellipse 1" cx="34.095" cy="34.095" r="34.095" transform="translate(-4017 -879)" fill="#f90"/>
    <g id="BitcoinSign" transform="matrix(0.966, 0.259, -0.259, 0.966, -4003.588, -882.224)">
      <g id="Group_3" data-name="Group 3" transform="translate(11.848 5.89)">
        <path id="Path_26" data-name="Path 26" d="M41.217,28.958c2.667-1.357,4.336-3.748,3.946-7.731C44.638,15.784,39.935,13.959,34,13.44V5.89H29.4v7.351c-1.21,0-2.444.024-3.673.048v-7.4h-4.6v7.548c-1,.02-1.974.04-2.93.04v-.022l-6.346,0V18.36s3.4-.064,3.341,0a2.375,2.375,0,0,1,2.646,2.015V41.055a1.625,1.625,0,0,1-1.73,1.523c.059.052-3.347,0-3.347,0l-.913,5.487h5.986c1.115,0,2.211.019,3.286.027l0,7.635h4.6V48.173c1.264.026,2.485.037,3.677.035v7.52h4.6l0-7.622c7.733-.444,13.147-2.39,13.82-9.646C48.359,32.618,45.608,30.011,41.217,28.958ZM25.831,18.692c2.595,0,10.755-.826,10.756,4.59,0,5.192-8.159,4.585-10.756,4.585Zm0,23.923,0-10.116c3.117,0,12.9-.9,12.9,5.056C38.729,43.262,28.949,42.612,25.829,42.615Z" transform="translate(-11.848 -5.89)" fill="#fff"/>
      </g>
    </g>
  </g>
</svg>
