<svg xmlns="http://www.w3.org/2000/svg" width="79.19" height="61.59" viewBox="0 0 79.19 61.59">
  <g id="mastercardFooter" transform="translate(3936 876)">
    <rect id="Rectangle_4" data-name="Rectangle 4" width="79.19" height="61.59" rx="5" transform="translate(-3936 -876)"/>
    <g id="Layer_2" data-name="Layer 2" transform="translate(-3932 -874)">
      <g id="Layer_1" data-name="Layer 1">
        <rect id="Rectangle_5" data-name="Rectangle 5" width="70.212" height="57.59" fill="none"/>
        <path id="Path_23" data-name="Path 23" d="M28.441,98.269V95.4a1.7,1.7,0,0,0-1.8-1.817,1.77,1.77,0,0,0-1.607.813,1.679,1.679,0,0,0-1.511-.813,1.511,1.511,0,0,0-1.339.679V93.7H21.19v4.572h1V95.753a1.071,1.071,0,0,1,1.119-1.215c.66,0,.995.43.995,1.205v2.544h1V95.753a1.076,1.076,0,0,1,1.119-1.215c.679,0,1,.43,1,1.205v2.544ZM43.3,93.7H41.665V92.31h-1V93.7h-.909v.909h.928v2.1c0,1.062.411,1.693,1.588,1.693a2.334,2.334,0,0,0,1.244-.354l-.287-.851a1.837,1.837,0,0,1-.88.258c-.478,0-.66-.306-.66-.765V94.605h1.626Zm8.485-.115a1.349,1.349,0,0,0-1.205.67V93.7H49.6v4.572h.995V95.705c0-.756.325-1.177.957-1.177a1.621,1.621,0,0,1,.622.115l.306-.957a2.128,2.128,0,0,0-.708-.124Zm-12.828.478a3.42,3.42,0,0,0-1.865-.478c-1.157,0-1.913.555-1.913,1.464,0,.746.555,1.205,1.578,1.349l.478.067c.545.077.8.22.8.478,0,.354-.363.555-1.043.555a2.435,2.435,0,0,1-1.521-.478L35,97.791a3.3,3.3,0,0,0,1.98.593c1.32,0,2.085-.622,2.085-1.492s-.6-1.224-1.6-1.368l-.478-.067c-.43-.057-.775-.144-.775-.45s.325-.536.87-.536a2.946,2.946,0,0,1,1.435.392ZM65.6,93.582a1.349,1.349,0,0,0-1.205.67V93.7h-.985v4.572h.995V95.705c0-.756.325-1.177.957-1.177a1.621,1.621,0,0,1,.622.115l.306-.957a2.128,2.128,0,0,0-.708-.124ZM52.785,95.973a2.31,2.31,0,0,0,2.439,2.391,2.391,2.391,0,0,0,1.645-.545l-.478-.8a2.009,2.009,0,0,1-1.2.411,1.468,1.468,0,0,1,0-2.927,2.009,2.009,0,0,1,1.2.411l.478-.8a2.391,2.391,0,0,0-1.645-.545,2.31,2.31,0,0,0-2.439,2.391Zm9.317,0V93.7h-.995v.555a1.736,1.736,0,0,0-1.435-.67,2.391,2.391,0,0,0,0,4.783,1.736,1.736,0,0,0,1.435-.67v.555H62.1Zm-3.7,0a1.373,1.373,0,1,1,.373,1.035,1.382,1.382,0,0,1-.373-1.035Zm-12-2.391a2.392,2.392,0,0,0,.067,4.783,2.779,2.779,0,0,0,1.9-.622l-.478-.737a2.176,2.176,0,0,1-1.33.478,1.267,1.267,0,0,1-1.368-1.119h3.4v-.383a2.174,2.174,0,0,0-2.171-2.391Zm0,.89a1.134,1.134,0,0,1,1.157,1.11H45.162a1.177,1.177,0,0,1,1.215-1.11Zm24.923,1.511V91.86h-.957v2.391a1.736,1.736,0,0,0-1.435-.67,2.391,2.391,0,0,0,0,4.783,1.736,1.736,0,0,0,1.435-.67v.555h.957Zm-3.678,0a1.373,1.373,0,1,1,.373,1.035A1.382,1.382,0,0,1,67.641,95.983Zm-33.59,0V93.7h-.995v.555a1.736,1.736,0,0,0-1.435-.67,2.391,2.391,0,0,0,0,4.783,1.736,1.736,0,0,0,1.435-.67v.555h.995Zm-3.7,0a.586.586,0,1,1-.01,0Z" transform="translate(-11.055 -47.925)" fill="#fff"/>
        <g id="_Group_" data-name="&lt;Group&gt;" transform="translate(7.249 7.246)">
          <rect id="Rectangle_6" data-name="Rectangle 6" width="15.066" height="27.076" transform="translate(20.324 3.683)" fill="#ff5f00"/>
          <path id="_Path_" data-name="&lt;Path&gt;" d="M36.436,32.375a17.189,17.189,0,0,1,6.576-13.54,17.218,17.218,0,1,0,0,27.076A17.189,17.189,0,0,1,36.436,32.375Z" transform="translate(-15.155 -15.153)" fill="#eb001b"/>
          <path id="Path_24" data-name="Path 24" d="M101.26,32.373A17.218,17.218,0,0,1,73.4,45.909a17.218,17.218,0,0,0,0-27.076,17.218,17.218,0,0,1,27.86,13.535Z" transform="translate(-45.543 -15.151)" fill="#f79e1b"/>
        </g>
      </g>
    </g>
  </g>
</svg>
