<svg xmlns="http://www.w3.org/2000/svg" width="79.19" height="61.59" viewBox="0 0 79.19 61.59">
  <g id="paypalFooter" transform="translate(4023 944)">
    <rect id="Rectangle_2" data-name="Rectangle 2" width="79.19" height="61.59" rx="5" transform="translate(-4023 -944)" fill="#fff"/>
    <g id="paypalFooter-2" data-name="paypalFooter" transform="translate(-4048.002 -928)">
      <path id="Path_21" data-name="Path 21" d="M318.974,385.13c2.305,0,4.433,1.251,4.142,4.368-.353,3.7-2.337,5.754-5.468,5.763h-2.736c-.393,0-.584.321-.686.979L313.7,399.6c-.079.508-.34.758-.725.758h-2.545c-.406,0-.547-.259-.457-.84l2.1-13.482c.1-.663.353-.91.806-.91h6.093Zm-4.145,7.218H316.9c1.3-.049,2.157-.947,2.244-2.567a1.566,1.566,0,0,0-1.7-1.711l-1.951.009-.669,4.269Zm15.207,6.982c.233-.212.469-.321.436-.06l-.083.624c-.042.326.086.5.39.5h2.261c.381,0,.566-.153.66-.743l1.394-8.746c.071-.439-.037-.654-.37-.654h-2.487c-.224,0-.333.125-.392.467l-.092.538c-.048.28-.176.33-.3.048-.422-1-1.5-1.446-3-1.411a6.224,6.224,0,0,0-6.091,6.114,4.2,4.2,0,0,0,4.166,4.687,4.473,4.473,0,0,0,3.51-1.358h0Zm-1.895-1.346a2.273,2.273,0,0,1-2.33-2.665,3.246,3.246,0,0,1,3.122-2.665,2.273,2.273,0,0,1,2.33,2.665,3.245,3.245,0,0,1-3.122,2.665Zm11.378-7.761h-2.293c-.473,0-.665.353-.515.787l2.847,8.336-2.792,3.967c-.235.332-.053.633.277.633h2.577a.788.788,0,0,0,.766-.376l8.756-12.559c.27-.386.143-.792-.3-.792H346.4c-.418,0-.586.166-.826.513l-3.651,5.292-1.632-5.3a.7.7,0,0,0-.773-.5Z" transform="translate(-280.578 -379.734)" fill="#113984" fill-rule="evenodd"/>
      <path id="Path_22" data-name="Path 22" d="M541.642,385.113c2.305,0,4.433,1.251,4.142,4.368-.353,3.7-2.337,5.754-5.468,5.763h-2.734c-.393,0-.584.321-.686.979l-.529,3.364c-.079.508-.34.758-.725.758H533.1c-.406,0-.547-.259-.457-.84l2.1-13.485c.1-.663.353-.91.806-.91h6.093Zm-4.145,7.218h2.073c1.3-.049,2.157-.947,2.244-2.567a1.566,1.566,0,0,0-1.7-1.711l-1.951.009-.669,4.269Zm15.207,6.982c.233-.212.469-.321.436-.06l-.083.624c-.042.326.086.5.39.5h2.261c.381,0,.566-.153.66-.743l1.393-8.746c.071-.439-.037-.654-.37-.654h-2.484c-.224,0-.333.125-.392.467l-.092.538c-.048.281-.176.33-.3.048-.422-1-1.5-1.446-3-1.411a6.224,6.224,0,0,0-6.091,6.114,4.2,4.2,0,0,0,4.166,4.687,4.473,4.473,0,0,0,3.51-1.358h0Zm-1.893-1.346a2.273,2.273,0,0,1-2.33-2.665,3.246,3.246,0,0,1,3.122-2.665,2.273,2.273,0,0,1,2.33,2.665,3.246,3.246,0,0,1-3.122,2.665Zm10.43,2.424H558.63a.309.309,0,0,1-.319-.353L560.6,385.51a.45.45,0,0,1,.434-.353h2.611a.309.309,0,0,1,.319.353l-2.293,14.528a.45.45,0,0,1-.434.356Z" transform="translate(-463.97 -379.717)" fill="#009ee3" fill-rule="evenodd"/>
    </g>
  </g>
</svg>
