<svg xmlns="http://www.w3.org/2000/svg" width="79.19" height="61.59" viewBox="0 0 79.19 61.59">
  <g id="visaFooter" transform="translate(3936 944)">
    <rect id="Rectangle_3" data-name="Rectangle 3" width="79.19" height="61.59" rx="5" transform="translate(-3936 -944)" fill="#fff"/>
    <g id="visaFooter-2" data-name="visaFooter" transform="translate(-4011.332 -1029.608)">
      <path id="polygon9" d="M438.963,131.829h-5.456l3.413-21.1h5.456Z" transform="translate(-328.61 -5.297)" fill="#00579f"/>
      <path id="path11" d="M581.546,105.946a13.446,13.446,0,0,0-4.894-.9c-5.388,0-9.183,2.873-9.206,6.981-.045,3.031,2.717,4.714,4.782,5.725,2.111,1.033,2.829,1.707,2.829,2.627-.021,1.414-1.706,2.065-3.277,2.065a10.859,10.859,0,0,1-5.119-1.122l-.719-.337-.763,4.737a16.605,16.605,0,0,0,6.085,1.123c5.725,0,9.452-2.829,9.5-7.207.022-2.4-1.436-4.243-4.58-5.747-1.908-.966-3.077-1.617-3.077-2.6.022-.9.989-1.818,3.143-1.818a9.271,9.271,0,0,1,4.064.808l.493.224.742-4.557Z" transform="translate(-451.413)" fill="#00579f"/>
      <path id="path13" d="M798.964,124.353c.449-1.212,2.178-5.9,2.178-5.9-.023.045.448-1.235.718-2.02l.381,1.818s1.033,5.051,1.258,6.106Zm6.735-13.626h-4.22a2.692,2.692,0,0,0-2.852,1.751l-8.1,19.351h5.725l1.145-3.165H804.4c.157.741.651,3.165.651,3.165H810.1l-4.4-21.1Z" transform="translate(-661.579 -5.297)" fill="#00579f"/>
      <path id="path15" d="M179.307,110.727l-5.344,14.389-.584-2.918a16.151,16.151,0,0,0-7.544-8.845l4.894,18.454h5.77l8.576-21.08Z" transform="translate(-78.967 -5.297)" fill="#00579f"/>
      <path id="path17" d="M90.034,110.727H81.256l-.09.426c6.848,1.751,11.383,5.972,13.246,11.046L92.5,112.5a2.258,2.258,0,0,0-2.47-1.774Z" transform="translate(0 -5.297)" fill="#faa61a"/>
    </g>
  </g>
</svg>
