<svg xmlns="http://www.w3.org/2000/svg" width="79.846" height="79.85" viewBox="0 0 79.846 79.85">
  <g id="discount" transform="translate(-0.002 0)">
    <path id="Path" d="M76.178,39.928l3.5-9.137a2.5,2.5,0,0,0-.759-2.834l-7.6-6.158-1.537-9.666a2.494,2.494,0,0,0-2.076-2.071L58.048,8.524,51.9.924A2.5,2.5,0,0,0,49.066.165L39.924,3.673,30.787.17a2.489,2.489,0,0,0-2.829.759L21.8,8.529l-9.666,1.537a2.5,2.5,0,0,0-2.071,2.071L8.525,21.8l-7.6,6.158A2.5,2.5,0,0,0,.167,30.79l3.5,9.137-3.5,9.137a2.489,2.489,0,0,0,.759,2.829l7.6,6.153,1.537,9.666a2.494,2.494,0,0,0,2.071,2.076L21.8,71.326l6.158,7.6a2.483,2.483,0,0,0,2.834.759l9.132-3.5,9.137,3.5a2.5,2.5,0,0,0,2.834-.764l6.153-7.6,9.666-1.537a2.5,2.5,0,0,0,2.076-2.076l1.537-9.666,7.6-6.153a2.491,2.491,0,0,0,.759-2.829Z" transform="translate(0.002 0)" fill="#2085a0"/>
    <g id="Group" transform="translate(24.951 19.961)">
      <path id="Shape" d="M7.485,14.971a7.485,7.485,0,1,1,7.485-7.485A7.494,7.494,0,0,1,7.485,14.971Zm0-9.98A2.495,2.495,0,1,0,9.98,7.485,2.5,2.5,0,0,0,7.485,4.99Z" transform="translate(0.003 0.005)" fill="#fafafa"/>
      <path id="Shape-2" data-name="Shape" d="M7.485,14.971a7.485,7.485,0,1,1,7.485-7.485A7.494,7.494,0,0,1,7.485,14.971Zm0-9.98A2.495,2.495,0,1,0,9.98,7.485,2.5,2.5,0,0,0,7.485,4.99Z" transform="translate(14.974 24.957)" fill="#fafafa"/>
      <path id="Path-2" data-name="Path" d="M2.493,39.925A2.495,2.495,0,0,1,.467,35.978L25.418,1.046a2.5,2.5,0,0,1,4.062,2.9L4.529,38.877A2.506,2.506,0,0,1,2.493,39.925Z" transform="translate(0.006 0.003)" fill="#fafafa"/>
    </g>
  </g>
</svg>
