<svg xmlns="http://www.w3.org/2000/svg" width="100" height="99.778" viewBox="0 0 100 99.778">
  <g id="global-shipping" transform="translate(0 -0.097)">
    <path id="Path" d="M74.925,37.39q0,.769-.031,1.53A37.226,37.226,0,0,1,64.2,63.577q-1.073,1.1-2.238,2.1A37.317,37.317,0,0,1,39,74.751q-.763.031-1.533.03t-1.533-.03a37.341,37.341,0,0,1-22.968-9.075q-1.162-1-2.238-2.1A37.226,37.226,0,0,1,.031,38.92Q0,38.158,0,37.39t.031-1.53a37.223,37.223,0,0,1,10.69-24.653q1.076-1.1,2.242-2.1A37.32,37.32,0,0,1,35.931.03Q36.694,0,37.463,0T39,.03A37.321,37.321,0,0,1,61.963,9.1c.777.669,1.524,1.373,2.24,2.1A37.218,37.218,0,0,1,74.895,35.861q.031.762.031,1.53Z" transform="translate(12.527 12.591)" fill="#61b4d8"/>
    <path id="Path-2" data-name="Path" d="M37.172,74.777A37.389,37.389,0,0,1,37.172,0C24.805.259,14.828,16.9,14.828,37.389S24.805,74.518,37.172,74.777Z" transform="translate(12.527 12.594)" fill="#3598ba"/>
    <g id="Group" transform="translate(23.242 12.476)">
      <path id="Shape" d="M24.168,74.782a37.481,37.481,0,0,1-11.514-1.8,30.436,30.436,0,0,1-5.819-7.346C2.428,58.068,0,48.036,0,37.39S2.428,16.714,6.835,9.148A30.448,30.448,0,0,1,12.654,1.8a37.754,37.754,0,0,1,23.023,0A30.338,30.338,0,0,1,41.5,9.148c4.41,7.567,6.838,17.6,6.838,28.243S45.908,58.068,41.5,65.636a30.4,30.4,0,0,1-5.821,7.349A37.52,37.52,0,0,1,24.168,74.782Zm0-74.717c-5.478,0-10.693,3.772-14.682,10.621-4.14,7.109-6.421,16.593-6.421,26.7s2.28,19.6,6.421,26.707c3.99,6.848,9.2,10.619,14.682,10.619s10.69-3.771,14.68-10.619C42.99,56.989,45.271,47.5,45.271,37.39s-2.281-19.6-6.423-26.7C34.858,3.837,29.645.065,24.168.065Z" transform="translate(2.581 0.116)" fill="#fff"/>
      <path id="Path-3" data-name="Path" d="M53.476,10.594q-1.073,1.1-2.238,2.1a35.973,35.973,0,0,0-49,0q-1.162-1-2.238-2.1l.045-.043a39.04,39.04,0,0,1,53.386,0Z" transform="translate(0.01 53.099)" fill="#fff"/>
      <path id="Path-4" data-name="Path" d="M53.482,2.1l-.045.043A38.893,38.893,0,0,1,26.743,12.693,38.9,38.9,0,0,1,.047,2.146L0,2.1Q1.076,1,2.242,0a35.816,35.816,0,0,0,24.5,9.631A35.8,35.8,0,0,0,51.242,0C52.019.669,52.766,1.373,53.482,2.1Z" transform="translate(0.006 9.22)" fill="#fff"/>
    </g>
    <path id="Path-5" data-name="Path" d="M49.991,99.778A49.89,49.89,0,0,1,42.815.506,50.5,50.5,0,0,1,73.238,5.7a1.53,1.53,0,1,1-1.426,2.708,47.4,47.4,0,0,0-28.56-4.875A46.843,46.843,0,1,0,84.847,18.528a1.531,1.531,0,0,1,2.275-2.051,49.9,49.9,0,0,1-37.132,83.3Z" transform="translate(0 0.097)" fill="#2085a0"/>
    <path id="Path-6" data-name="Path" d="M1.533,13.7A1.531,1.531,0,0,1,0,12.171V1.529A1.532,1.532,0,0,1,1.637,0L11.88.7a1.53,1.53,0,1,1-.208,3.053L3.066,3.166v9A1.532,1.532,0,0,1,1.533,13.7Z" transform="translate(82.623 14.157)" fill="#2085a0"/>
    <path id="Path-7" data-name="Path" d="M74.925,1.53q0,.769-.031,1.53H.031Q0,2.3,0,1.53T.031,0H74.895Q74.926.762,74.925,1.53Z" transform="translate(12.527 48.452)" fill="#fff"/>
    <path id="Path-8" data-name="Path" d="M3.065.03V74.751q-.763.031-1.533.03T0,74.751V.03Q.763,0,1.533,0T3.065.03Z" transform="translate(48.458 12.591)" fill="#fff"/>
  </g>
</svg>
