<svg xmlns="http://www.w3.org/2000/svg" width="304.745" height="58.257" viewBox="0 0 304.745 58.257">
  <g id="westernUnion" transform="translate(-26.8 -268.7)">
    <g id="Group_1" data-name="Group 1" transform="translate(26.8 268.7)">
      <path id="Path_1" data-name="Path 1" d="M331.545,322.284a4.661,4.661,0,0,1-4.673,4.673H31.473a4.693,4.693,0,0,1-4.673-4.673V273.373a4.66,4.66,0,0,1,4.673-4.673H326.822a4.693,4.693,0,0,1,4.673,4.673v48.912Z" transform="translate(-26.8 -268.7)" fill="#000101"/>
    </g>
    <path id="Path_2" data-name="Path 2" d="M46.6,283.1h6.908l1.625,12.19h.051l1.828-12.19h7.923l1.778,12.19h.1L68.44,283.1H75.3l-4.165,19.4H62.8l-1.828-12.6h-.051l-1.778,12.6h-8.33Z" transform="translate(-9.743 -7.086)" fill="#ffdb00"/>
    <path id="Path_3" data-name="Path 3" d="M112,283.1h14.729v5.028h-7.365v2.082h6.806v5.028h-6.806v2.184h7.619V302.5H112Z" transform="translate(-41.926 -7.086)" fill="#ffdb00"/>
    <g id="Group_2" data-name="Group 2" transform="translate(89.476 275.404)">
      <path id="Path_4" data-name="Path 4" d="M161.469,287.995a1.463,1.463,0,0,0-1.676-1.625c-1.219,0-1.778.559-1.778,1.117,0,.711.457.965,1.27,1.219a51.639,51.639,0,0,1,6.146,1.778,5.178,5.178,0,0,1,3.5,5.13c0,4.774-3.86,6.755-9.346,6.755-4.673,0-8.99-1.473-8.99-6.5h7.365a2.388,2.388,0,0,0,.406,1.473,1.861,1.861,0,0,0,1.524.609,1.7,1.7,0,0,0,1.879-1.575c0-.711-.559-1.117-1.27-1.321l-5.485-1.625c-3-.914-4.012-2.692-4.012-5.181,0-4.063,3.251-6.349,8.939-6.349,4.825,0,8.482,1.524,8.482,6.044h-6.958Z" transform="translate(-150.397 -281.9)" fill="#ffdb00"/>
      <path id="Path_5" data-name="Path 5" d="M199.725,288.281H194.9V283.1h17.269v5.181h-4.774V302.5h-7.669Z" transform="translate(-172.196 -282.491)" fill="#ffdb00"/>
      <path id="Path_6" data-name="Path 6" d="M238.8,283.1h14.729v5.028h-7.365v2.082h6.806v5.028h-6.806v2.184h7.619V302.5H238.8Z" transform="translate(-193.799 -282.491)" fill="#ffdb00"/>
      <path id="Path_7" data-name="Path 7" d="M279.1,283.1h11.479c4.165,0,6.6,1.27,6.6,4.927,0,2.235-.965,3.911-3.86,4.622v.051c1.879.152,2.9.965,3.3,2.489.406,1.676.356,4.419,1.27,7.314h-7.517a46.543,46.543,0,0,1-.965-5.536c-.152-.965-.66-1.321-1.879-1.321h-.863v6.908h-7.517V283.1Zm8.177,8.076c1.473,0,2.54-.508,2.54-1.981,0-1.422-1.016-1.727-2.489-1.727h-.711v3.657h.66Z" transform="translate(-213.631 -282.491)" fill="#ffdb00"/>
      <path id="Path_8" data-name="Path 8" d="M326.2,283.1h9.193l4.114,11.733h.051V283.1h6.247v19.4h-9.193L332.5,290.668h-.051V302.5H326.2Z" transform="translate(-236.808 -282.491)" fill="#ffdb00"/>
      <path id="Path_9" data-name="Path 9" d="M168.586,341.7c0,4.673-3.352,7.009-9.193,7.009s-9.193-2.336-9.193-7.009V328.8h7.669v12.6c0,1.524.711,2.133,1.524,2.133s1.524-.609,1.524-2.133V328.8h7.669Z" transform="translate(-150.2 -304.979)" fill="#ffdb00"/>
      <path id="Path_10" data-name="Path 10" d="M198.5,328.8h9.244l4.114,11.784h.051V328.8h6.247v19.4h-9.244L204.8,336.368h-.051V348.2H198.5Z" transform="translate(-173.968 -304.979)" fill="#ffdb00"/>
      <rect id="Rectangle_1" data-name="Rectangle 1" width="7.669" height="19.402" transform="translate(50.486 23.821)" fill="#ffdb00"/>
      <path id="Path_11" data-name="Path 11" d="M285.706,327.8c6.7,0,10.006,4.165,10.006,10.209s-3.352,10.209-10.006,10.209c-6.7,0-10.006-4.165-10.006-10.209S279,327.8,285.706,327.8m0,15.39c1.168,0,2.082-.66,2.082-5.181,0-4.368-.813-5.181-2.082-5.181-1.219,0-2.082.762-2.082,5.181,0,4.52.914,5.181,2.082,5.181" transform="translate(-211.957 -304.487)" fill="#ffdb00"/>
      <path id="Path_12" data-name="Path 12" d="M326.2,328.8h9.193l4.114,11.784h.051V328.8h6.247v19.4h-9.193L332.5,336.368h-.051V348.2H326.2Z" transform="translate(-236.808 -304.979)" fill="#ffdb00"/>
      <path id="Path_13" data-name="Path 13" d="M456.908,282.5h-3.251L450,309.724h-.1L445.887,282.5H428.161l-4.012,27.224h-.1L420.39,282.5H405l9.346,43.274h18.589l4.012-28.037h.1l4.012,28.037h18.589l.914-4.317a14.257,14.257,0,0,1-3.657-10.209Z" transform="translate(-275.585 -282.195)" fill="#ffdb00"/>
      <path id="Path_14" data-name="Path 14" d="M507.2,282.5v28.748a14.342,14.342,0,0,0,3.657,10.209l8.431-38.957Z" transform="translate(-325.877 -282.195)" fill="#fff"/>
      <path id="Path_15" data-name="Path 15" d="M536,282.5v28.037c0,3.4-1.625,4.724-3.4,4.724s-3.4-1.321-3.4-4.724V282.5h-3.657L516.9,322.523c3.5,2.9,8.787,4.419,15.694,4.419,13.053,0,20.57-5.231,20.57-15.644V282.551H536Z" transform="translate(-330.65 -282.195)" fill="#ffdb00"/>
      <path id="Path_16" data-name="Path 16" d="M380.34,282.5H377.8l9.193,43.274h2.54Z" transform="translate(-262.2 -282.195)" fill="#ffdb00"/>
      <path id="Path_17" data-name="Path 17" d="M400.693,325.774h2.54L394.04,282.5H391.5Z" transform="translate(-268.942 -282.195)" fill="#ffdb00"/>
      <path id="Path_18" data-name="Path 18" d="M596.776,285.763c0-.3-.152-.406-.457-.406-.2,0-.457.1-.457.356,0,.3.254.356.508.406.406.1,1.067.254,1.067.813,0,.711-.609.965-1.219.965-.66,0-1.117-.254-1.117-.965h.609c0,.3.152.508.457.508.254,0,.559-.051.559-.356,0-.356-.406-.356-.66-.406-.406-.1-.965-.254-.965-.813,0-.66.609-.965,1.219-.965a.856.856,0,0,1,.965.863h-.508Z" transform="translate(-369.131 -283.376)" fill="#ffdb00"/>
      <path id="Path_19" data-name="Path 19" d="M602.379,287.844h-.508l-.762-2.438h0v2.438H600.5V285h1.016l.609,2.082.66-2.082h.965v2.844h-.559v-2.438h0Z" transform="translate(-371.789 -283.425)" fill="#ffdb00"/>
    </g>
  </g>
</svg>
