<svg xmlns="http://www.w3.org/2000/svg" width="304" height="58.115" viewBox="0 0 304 58.115">
  <g id="westernUnion" transform="translate(-26.8 -268.7)">
    <path id="Exclusion_1" data-name="Exclusion 1" d="M299.339,58.115H4.662A4.682,4.682,0,0,1,0,53.453V4.661A4.649,4.649,0,0,1,4.662,0H299.288a4.681,4.681,0,0,1,4.661,4.661V53.453H304a4.65,4.65,0,0,1-4.662,4.662ZM256.931,6.992h0l-8.614,39.925c3.54,2.925,8.808,4.408,15.656,4.408,6.56,0,11.655-1.315,15.143-3.908,3.568-2.651,5.377-6.587,5.377-11.7V7.043H267.368V34.959a5.575,5.575,0,0,1-1.032,3.629,3.117,3.117,0,0,1-4.725,0,5.575,5.575,0,0,1-1.033-3.629V6.992ZM136.091,29.944a12.119,12.119,0,0,0-4.381.743,8.261,8.261,0,0,0-3.118,2.088,10.59,10.59,0,0,0-2.483,7.354,10.588,10.588,0,0,0,2.483,7.353,8.266,8.266,0,0,0,3.118,2.087,12.124,12.124,0,0,0,4.381.743c6.25,0,9.981-3.807,9.981-10.183a10.591,10.591,0,0,0-2.483-7.354,8.262,8.262,0,0,0-3.117-2.088A12.12,12.12,0,0,0,136.091,29.944Zm-73.568.507V43.32a6.154,6.154,0,0,0,2.4,5.244c1.557,1.16,3.835,1.748,6.77,1.748s5.213-.588,6.77-1.748a6.154,6.154,0,0,0,2.4-5.244V30.45H73.214V43.016c0,1.332-.568,2.128-1.52,2.128s-1.52-.8-1.52-2.128V30.45Zm129.1-23.458,9.323,43.169h18.544l4-27.968h.1l4,27.968h18.544l.912-4.307,8.41-38.861h-15.3l-3.648,27.157h-.1l-4-27.157H214.726l-4,27.157h-.1L206.974,6.992Zm-6.84,0,9.171,43.169h2.534l-9.17-43.168Zm-6.941,0,9.17,43.169h2.533l-9.17-43.168ZM157.928,38h.05l4.1,11.8h9.171V30.45h-6.231V42.2h-.051l-4.1-11.755H151.7V49.8h6.232V38Zm-64.7,0h.05l4.1,11.8H106.6V30.45h-6.232V42.2h-.05l-4.1-11.755H86.995V49.8h6.232V38Zm19.658-7.55V49.8h7.651V30.45Zm-50.16-9.829a5.567,5.567,0,0,0,2.736,5.123,12.174,12.174,0,0,0,6.232,1.361,12.161,12.161,0,0,0,6.713-1.583,5.8,5.8,0,0,0,2.609-5.155,5.185,5.185,0,0,0-3.5-5.117,34.16,34.16,0,0,0-4.754-1.422l-.016,0c-.5-.125-.98-.242-1.361-.347-.84-.262-1.266-.522-1.266-1.217,0-.555.548-1.115,1.773-1.115a1.46,1.46,0,0,1,1.672,1.622v-.051h6.941a5.17,5.17,0,0,0-2.425-4.706,11.5,11.5,0,0,0-6.035-1.324,15.655,15.655,0,0,0-3.788.42,8.334,8.334,0,0,0-2.8,1.227,5.424,5.424,0,0,0-2.331,4.686c0,2.73,1.234,4.323,4,5.168l5.472,1.622c.578.165,1.267.527,1.267,1.317A1.7,1.7,0,0,1,72,22.7a1.877,1.877,0,0,1-1.52-.608,2.376,2.376,0,0,1-.405-1.469ZM127.883,7.3V26.7h7.5V19.81h.862c1.214,0,1.722.357,1.874,1.317.064.408.127.861.193,1.341a29.891,29.891,0,0,0,.77,4.182h7.5a25.778,25.778,0,0,1-.926-4.991v0a19.8,19.8,0,0,0-.341-2.3c-.412-1.545-1.458-2.334-3.293-2.483v-.051c2.627-.645,3.851-2.11,3.851-4.611a4.269,4.269,0,0,0-1.735-3.825A8.584,8.584,0,0,0,139.283,7.3ZM10.032,7.3l4.205,19.355h8.31L24.32,14.086h.051L26.195,26.65H34.5L38.659,7.3h-6.84L30.2,19.456h-.1L28.323,7.3h-7.9l-1.825,12.16h-.05L16.923,7.3Zm147.9,7.549h.05l4.1,11.805h9.171V7.3h-6.231V19h-.051l-4.1-11.7H151.7V26.65h6.232v-11.8ZM107.413,7.3V26.65H122.36V21.583h-7.6V19.4h6.79V14.389h-6.79V12.312h7.347V7.3Zm-22.242,0v5.168h4.813V26.65h7.651V12.464H102.4V7.3Zm-42,0V26.65H58.115V21.583h-7.6V19.4H57.3V14.389H50.515V12.312h7.347V7.3Zm244.771,2.939c0,.639.375.962,1.115.962.285,0,1.216-.069,1.216-.962,0-.545-.624-.7-1.038-.8l-.027-.007c-.249-.05-.507-.1-.507-.405,0-.244.237-.355.456-.355.324,0,.456.117.456.4h.507a.816.816,0,0,0-.258-.629,1.035,1.035,0,0,0-.7-.231c-.605,0-1.216.3-1.216.962,0,.57.579.715.962.811.042.008.086.015.124.021.239.037.535.084.535.384,0,.239-.182.355-.558.355-.29,0-.456-.184-.456-.507Zm3.344-1.571.76,2.432h.507l.81-2.429h0V11.1h.558V8.259h-.963l-.658,2.077-.608-2.077h-1.013V11.1h.608ZM136.091,45.3a1.483,1.483,0,0,1-1.476-.893,10.308,10.308,0,0,1-.6-4.275,10.494,10.494,0,0,1,.583-4.238,1.673,1.673,0,0,1,3.008.019,10.551,10.551,0,0,1,.564,4.218,10.308,10.308,0,0,1-.6,4.275A1.483,1.483,0,0,1,136.091,45.3Zm109.951-.658a12.9,12.9,0,0,1-1.708-3.212,15.881,15.881,0,0,1-.87-4.174,14.24,14.24,0,0,0,2.579,7.386ZM135.99,15.351h0V15.3h-.659V11.653h.709a3.578,3.578,0,0,1,1.792.329,1.463,1.463,0,0,1,.691,1.393C138.523,14.687,137.671,15.351,135.99,15.351Z" transform="translate(26.8 268.7)" fill="#fff"/>
  </g>
</svg>
